<svg xmlns="http://www.w3.org/2000/svg" xml:space="preserve" width="655.359" height="655.359" style="shape-rendering:geometricPrecision;text-rendering:geometricPrecision;image-rendering:optimizeQuality;fill-rule:evenodd;clip-rule:evenodd" viewBox="0 0 6.827 6.827"><defs><style>.fil0{fill:none}.fil2,.fil4{fill:#545454;fill-rule:nonzero}.fil2{fill:#a2a2a2}</style></defs><g id="Layer_x0020_1"><g id="_490377632"><path id="_490377920" class="fil0" d="M0 0h6.827v6.827H0z"/><path id="_490377848" class="fil0" d="M.853.853h5.12v5.12H.853z"/></g><path d="M4.26 2.541c-.035-.034-.052-.056-.092-.057a.1.1 0 0 0-.092.059c-.28.627-.34 1.387-.196 2.058-.122.322-.293 1.02-.296 1.028-.178.6.43-1.002.486-.929.63-.306 1.1-.759 1.398-1.344a.099.099 0 0 0-.01-.106c-.057-.074-.234-.008-.327.003.151-.084.325-.212.518-.38a.099.099 0 0 0 .03-.046c.254-.844.137-1.662.095-1.892a.1.1 0 0 0-.143-.07c-.274.14-.521.31-.735.5a.1.1 0 0 0-.03.1c.017.059.09.27.09.27-.037-.063-.094-.204-.173-.212-.13-.013-.424.463-.491.578a.099.099 0 0 0-.014.052c.01.501.297.694-.018.388z" style="fill:#bbbbbc;fill-rule:nonzero"/><path class="fil0" d="M5.718 2.425c-.278.204-.359.27-.654.266"/><path class="fil2" d="M5.419 2.591c-.168.225-.627.317-.76.357.23-.02.704-.077.76-.357zM5.451 2.183c-.17.244-.542.328-.617.357.187-.02.572-.077.617-.357zM5.722 1.713c.05-.035-.512.291-.602.262.303.057.365-.023.602-.262zM4.403 2.107c.004-.021.314.68.339.709-.225-.297-.257-.366-.34-.709zM4.739 1.862c-.001-.052.072.597.133.643-.164-.294-.165-.35-.133-.643z"/><path class="fil0" d="M5.639 1.16c-.61.9-1.035 1.84-1.61 3.45"/><path class="fil2" d="M4.002 4.6c.431-1.208.89-2.388 1.613-3.456-.085-.013-1.63 3.46-1.613 3.456z"/><path d="M2.784 4.185h-.006v-.142c.081-.024.14-.09.14-.168 0-.098-.094-.178-.21-.178h-.936c-.116 0-.21.08-.21.178 0 .078.059.144.14.168v.142h-.006c-.288 0-.523.2-.523.445v.792c0 .246.235.445.523.445h1.088c.289 0 .523-.2.523-.445V4.63c0-.246-.234-.445-.523-.445z" style="fill:#717171;fill-rule:nonzero"/><path class="fil4" d="M1.173 4.693v.64h2.134v-.64zM2.778 4.043c.081-.024.14-.09.14-.168 0-.098-.094-.178-.21-.178h-.936c-.116 0-.21.08-.21.178 0 .078.059.144.14.168h1.076z"/><path class="fil2" d="M5.076 1.42c.006-.061.004.589.074.653-.2-.235-.163-.328-.074-.653z"/></g></svg>